<svg width="69" height="69" viewBox="19 15 30 40" fill="none" xmlns="http://www.w3.org/2000/svg">
<path d="M48.852 25.1621C48.8152 25.0624 48.7515 24.9748 48.668 24.9091C48.5716 24.8053 48.4409 24.74 48.3 24.7251H18.4C18.2888 24.7294 18.1811 24.7653 18.0895 24.8286C18.006 24.8943 17.9423 24.9819 17.9055 25.0816C17.864 25.1482 17.8366 25.2225 17.825 25.3001V46.0001C17.825 46.1526 17.8856 46.2989 17.9934 46.4067C18.1012 46.5145 18.2475 46.5751 18.4 46.5751H48.3C48.4525 46.5751 48.5988 46.5145 48.7066 46.4067C48.8144 46.2989 48.875 46.1526 48.875 46.0001V25.3001C48.873 25.2533 48.8653 25.207 48.852 25.1621ZM46.46 25.8751L33.35 34.9486L20.24 25.8751H46.46ZM47.725 45.4251H18.975V26.4501L33.028 36.1791C33.1218 36.2465 33.2345 36.2827 33.35 36.2827C33.4655 36.2827 33.5782 36.2465 33.672 36.1791L47.725 26.4501V45.4251Z" fill="#ECA15C"/>
</svg>