<svg width="174" height="105" viewBox="0 0 174 105" fill="none" xmlns="http://www.w3.org/2000/svg">
<g clip-path="url(#clip0)">
<path d="M142.635 61.8306C142.013 59.3424 140.893 56.6055 139.399 53.8685C138.901 52.9976 138.279 52.1268 137.532 51.3803C136.785 50.6339 136.039 49.8874 135.292 49.141C135.043 48.8922 134.794 48.6434 134.296 48.2701C133.923 47.8969 133.425 47.5237 132.927 47.1505C132.429 46.7773 131.931 46.404 131.558 46.1552C131.06 45.9064 130.687 45.782 130.313 45.782C130.189 45.782 129.815 46.1552 129.069 46.7773C128.322 47.3993 127.451 48.2701 126.455 49.2654C125.335 50.2607 124.215 51.3803 122.97 52.6244C121.85 53.7441 120.854 54.8638 119.858 55.859C121.227 55.7346 122.721 55.6102 124.215 55.859C125.335 55.859 126.33 56.1078 127.202 56.6055C128.073 57.1031 128.82 57.7251 129.567 58.3472C130.189 59.0936 130.811 59.8401 131.309 60.8353C131.807 61.7062 132.18 62.577 132.554 63.3235C134.172 67.0557 134.918 70.6635 134.918 74.2713C134.918 77.8792 134.047 81.487 132.554 85.2192C131.931 86.7121 131.185 88.0806 130.313 89.4491C129.442 90.8175 128.322 91.9372 126.828 92.8081C126.206 93.1813 125.459 93.4301 124.712 93.6789C123.841 93.9277 123.094 94.0521 122.099 94.1765C121.227 94.3009 120.356 94.301 119.485 94.301C118.614 94.301 117.742 94.3009 116.996 94.1765C116 94.0521 115.004 93.9277 114.009 93.8033C113.013 93.6789 112.142 93.5545 111.146 93.3057C110.15 93.0569 109.403 92.6837 108.657 92.186C107.91 91.6884 107.288 91.0664 106.665 90.1955C106.416 89.8223 106.292 89.4491 106.167 88.9514C106.043 88.5782 105.918 88.0806 105.67 87.7074V87.5829C105.67 87.4585 105.67 87.4585 105.67 87.4585C106.043 86.9609 106.416 86.4633 106.79 85.9656C107.163 85.468 107.536 84.9704 107.91 84.4728C109.403 82.2334 110.524 79.9941 111.27 77.6303C112.017 75.2666 112.391 72.7784 112.391 70.2903C112.391 67.3045 112.017 64.4431 111.395 61.955C110.773 59.4668 109.652 56.7299 108.159 53.9929C107.661 53.122 107.039 52.2512 106.292 51.5047C105.545 50.7583 104.798 50.0118 104.051 49.2654C103.803 49.0166 103.554 48.7678 103.056 48.3946C102.682 48.0213 102.185 47.6481 101.687 47.2749C101.189 46.9017 100.691 46.5284 100.318 46.2796C99.8197 46.0308 99.4463 45.9064 99.073 45.9064C98.9485 45.9064 98.5751 46.2796 97.8283 46.9017C97.0815 47.5237 96.2103 48.3946 95.2146 49.3898C94.0944 50.3851 92.9742 51.5047 91.7296 52.7488C90.7339 53.7441 89.7382 54.7393 88.7425 55.7346C90.3605 55.4858 91.9785 55.6102 93.8455 55.9834C93.8455 55.9834 93.8455 55.9834 93.9699 55.9834C95.4635 56.2322 96.8326 56.8543 97.9528 58.0983C99.3219 59.5912 100.442 61.2085 101.313 63.1991C102.185 65.1896 102.807 67.3045 103.18 69.4194C103.554 71.5344 103.803 73.2761 103.803 74.6446C103.803 76.013 103.678 77.5059 103.305 79.2476C102.931 80.9893 102.433 82.731 101.811 84.4728C101.189 86.2145 100.318 87.8318 99.3219 89.3247C98.3262 90.8175 97.206 91.9372 95.8369 92.8081C94.8412 93.3057 93.5966 93.8033 91.9785 94.0521C91.8541 94.0521 91.7296 94.0521 91.6051 94.0521C91.2318 94.1765 90.6094 94.1766 89.9871 94.301C89.4893 94.301 88.9914 94.4254 88.3691 94.4254C87.8712 94.4254 87.3734 94.5498 86.7511 94.5498C86.6266 94.5498 86.5021 94.5498 86.3777 94.5498C86.2532 94.5498 86.0043 94.5498 85.8798 94.5498C85.7554 94.5498 85.6309 94.5498 85.5064 94.5498C85.5064 94.5498 85.5064 94.5498 85.382 94.5498C85.2575 94.5498 85.2575 94.5498 85.133 94.5498C85.0086 94.5498 84.7597 94.5498 84.3863 94.4254C84.3863 94.4254 84.3863 94.4254 84.2618 94.4254C84.1373 94.4254 83.8884 94.4254 83.6395 94.301C82.3948 94.1766 79.1588 93.3057 78.5365 92.9325C78.412 92.9325 78.2876 92.8081 78.2876 92.8081C77.7897 92.5592 77.2918 92.3104 76.9184 91.8128C75.9227 90.5687 75.176 89.2002 74.8026 87.5829C74.4292 85.9656 74.1803 84.2239 74.1803 82.4822C74.1803 80.7405 74.1803 79.2476 74.1803 78.0036V55.859C74.1803 54.7393 73.8069 53.6197 73.1845 52.3756C72.4378 51.2559 71.8154 50.1363 71.0687 49.2654C70.3219 48.3946 69.4506 47.5237 68.4549 46.5284C67.4592 45.6576 66.2146 45.16 64.8455 45.16C64.721 45.16 64.5966 45.16 64.4721 45.2844C64.2232 45.5332 64.0987 45.9064 63.9742 46.1552C63.8498 46.404 63.6009 46.6528 63.4764 46.9017C63.103 47.3993 62.7296 47.8969 62.3562 48.2701C61.9828 48.6434 61.485 49.0166 61.1116 49.5142C60.6137 50.0118 60.2403 50.3851 59.8669 50.8827C59.4936 51.3803 59.1202 51.878 58.7468 52.3756C58.2489 52.9976 57.6266 53.6197 57.0043 54.1173C57.0043 54.1173 57.0043 54.1173 56.8798 54.2417C55.3863 55.6102 53.7682 56.7299 51.9013 57.7251C49.7854 58.8448 47.2961 59.3424 44.5579 59.3424C43.0644 59.3424 41.6953 59.218 40.3262 58.9692C38.8326 58.7204 37.4635 58.4716 36.0944 58.0983C36.7167 57.2275 37.0901 56.3566 37.4635 55.3614C37.8369 54.3661 38.0858 53.3709 38.3348 52.3756C38.5837 51.3803 38.8326 50.2607 38.9571 49.2654C39.0815 48.2701 39.3305 47.2749 39.4549 46.2796C39.5794 45.782 39.7039 45.16 39.8283 44.6623C39.9528 44.1647 39.9528 43.6671 40.0773 43.1694C40.0773 42.6718 40.2017 42.0498 40.0773 41.5521C40.0773 41.0545 40.0773 40.4325 40.0773 39.9348C42.1931 40.1837 44.4335 40.4325 46.5494 40.6813C48.6652 40.9301 50.7811 40.9301 53.0215 40.6813C55.0129 39.4372 56.8798 38.0687 58.6223 36.4514C60.3648 34.8341 61.7339 33.0924 62.7296 31.1019C61.485 31.3507 60.3648 31.4751 58.9957 31.4751C57.7511 31.4751 56.5064 31.3507 55.2618 31.2263C54.0172 30.9775 52.7725 30.7287 51.5279 30.4799L47.9185 29.609C46.6738 30.6043 45.4292 31.5995 44.309 32.5948C43.0644 33.59 41.8197 34.4609 40.4506 35.0829C40.3262 33.4656 40.2017 31.4751 40.2017 29.3602C40.2017 27.1209 39.9528 25.0059 39.7039 22.7666C39.4549 20.5273 38.9571 18.4123 38.4592 16.2974C37.8369 14.1825 37.0901 12.4408 36.0944 11.0723C37.3391 10.8235 38.7082 10.4502 40.0773 10.077C41.4464 9.70379 42.8154 9.45498 44.1845 9.45498C46.176 9.45498 48.0429 9.45498 49.7854 9.45498C51.5279 9.57938 53.1459 9.8282 54.6395 10.3258C56.133 10.8235 57.5021 11.6943 58.6223 12.6896C59.7425 13.8092 60.7382 15.1777 61.6094 17.0438L61.8584 16.6706C61.7339 16.173 61.7339 15.7998 61.8584 15.4265C61.8584 15.0533 61.9828 14.5557 61.9828 14.1825C61.8584 12.6896 61.485 11.5699 60.8627 10.4502C60.2403 9.45498 59.3691 8.33531 58.3734 7.34005C56.0086 4.8519 53.1459 2.98578 49.9099 1.86611C45.927 0.622038 42.4421 0 38.8326 0C37.8369 0 36.5923 0.124408 35.2232 0.49763C33.8541 0.870853 32.6094 1.11967 31.6137 1.49289C30.2446 1.86611 28.6266 2.36374 27.0086 2.86137C25.2661 3.359 23.5236 3.85664 21.6567 4.35427C19.9142 4.8519 18.0472 5.22512 16.3047 5.59834C14.5622 5.97156 12.9442 6.09597 11.5751 6.09597C9.08584 6.09597 6.84549 5.59834 4.97854 4.60308C3.23605 3.60782 1.49356 2.23934 0 0.373223C0.124464 1.86611 0.622318 3.359 1.49356 4.47867C2.24034 5.72275 3.23605 6.71801 4.35622 7.71327C5.47639 8.70853 6.84549 9.45498 8.21459 10.077C9.58369 10.8235 11.2017 11.3211 12.8197 11.6943C16.1803 12.1919 19.0429 12.4408 21.4077 12.4408C23.1502 12.4408 24.3948 12.3164 25.515 12.1919C26.0129 13.9337 26.5107 15.9242 27.0086 18.4123C27.5064 20.9005 28.0043 23.3886 28.3777 26.1256C28.7511 28.8626 29.1245 31.7239 29.3734 34.5853C29.6223 37.5711 29.7468 40.3081 29.6223 43.045C29.6223 45.782 29.3734 48.2701 28.8755 50.6339C28.5021 52.9976 27.8798 54.9882 27.0086 56.481C26.0129 56.3566 25.0172 56.2322 24.0215 56.2322C23.0257 56.2322 22.03 56.1078 21.0343 56.1078C18.2961 56.1078 15.8069 56.3566 13.4421 56.8543C11.824 57.2275 10.3305 57.6007 8.83691 58.2228C7.34335 58.8448 6.09871 59.5912 4.97854 60.4621C3.73391 61.3329 2.86266 62.4526 1.99142 63.6967C1.24464 64.9408 0.746781 66.3092 0.497854 67.8021C1.86695 66.0604 3.73391 64.6919 5.84978 63.5723C7.34335 62.7014 9.33476 62.3282 11.5751 62.3282C13.8154 62.3282 16.0558 62.577 18.4206 63.0746C20.7854 63.5723 23.1502 64.0699 25.3906 64.8164C27.6309 65.5628 29.6223 66.0604 31.2403 66.5581C32.3605 66.8069 33.7296 67.1801 35.3476 67.6777C36.9657 68.1754 38.3348 68.2998 39.4549 68.2998C43.0644 68.2998 46.5494 67.6777 49.6609 66.5581C52.7725 65.4384 55.6352 63.5723 58.1245 61.0841C59.4936 59.7156 60.4893 58.3472 61.3605 56.8543C62.1073 57.6007 62.6051 58.596 62.9785 59.5912C63.3519 60.7109 63.4764 61.8306 63.6009 62.9502C63.7253 64.0699 63.7253 65.0652 63.7253 65.936C63.7253 68.2998 63.7253 70.6635 63.6009 73.1517C63.4764 75.5154 63.4764 78.0036 63.4764 80.3673C63.4764 81.6114 63.4764 82.9799 63.6009 84.3484C63.6009 85.7168 63.8498 87.0853 63.9742 88.5782C64.2232 89.9467 64.4721 91.3152 64.97 92.6837C65.3433 94.0521 65.9657 95.2962 66.7124 96.2915C67.4592 97.5356 68.3305 98.7796 69.0772 99.6505C69.824 100.646 70.6953 101.392 71.691 102.139C72.6867 102.885 73.8069 103.383 75.0515 103.756C76.2961 104.129 77.7897 104.254 79.5322 104.254C80.03 104.254 80.6524 104.005 81.5236 103.756C82.3948 103.383 83.515 102.885 84.6352 102.263C85.7554 101.641 87 101.019 88.2446 100.273C89.4893 99.5261 90.7339 98.7796 91.8541 98.1576C92.9742 97.4111 94.0944 96.7891 94.9657 96.1671C95.9614 95.545 96.5837 95.0474 97.0815 94.7986C96.9571 95.0474 97.0815 95.2962 97.3305 95.6694C97.5794 96.0427 97.8283 96.2915 97.9528 96.4159C98.9485 97.66 99.6953 98.7796 100.567 99.7749C101.313 100.77 102.185 101.641 103.056 102.263C103.927 102.885 105.047 103.507 106.167 103.88C107.412 104.254 108.906 104.378 110.773 104.378C111.27 104.378 112.017 104.129 113.013 103.756C114.009 103.258 115.129 102.761 116.249 102.263C117.369 101.641 118.365 101.143 119.485 100.521C120.481 99.8993 121.227 99.5261 121.725 99.1528C124.712 97.4111 127.451 95.545 130.189 93.5545C132.803 91.564 135.167 89.3247 137.283 86.9609C139.275 84.5972 140.893 81.9846 142.137 79.1232C143.382 76.2618 143.88 73.1517 143.88 69.7927C143.631 67.1801 143.257 64.3187 142.635 61.8306Z" fill="url(#paint0_linear)"/>
<path d="M79.5322 32.4703C79.1588 32.9679 78.2875 32.9679 77.5408 32.9679C76.4206 32.9679 75.9227 32.9679 75.9227 31.7239V29.1113H77.5408C78.5365 29.1113 78.7854 29.1113 79.0343 30.231H79.2833V27.7428H79.0343C78.7854 28.6137 78.5365 28.7381 77.5408 28.7381H75.9227V25.6279C75.9227 25.2547 75.9227 25.2547 76.2961 25.2547H77.5408C79.1588 25.2547 79.4077 25.6279 79.6566 26.9964H79.9056C79.9056 26.2499 79.7811 25.3791 79.7811 25.0059H73.9313V25.2547C75.0515 25.2547 75.176 25.5035 75.176 26.7476V31.9727C75.176 32.9679 75.0515 33.2168 73.8069 33.3412V33.59H80.03C80.1545 33.0923 80.4034 31.9727 80.5279 31.475H80.279C80.1545 31.7239 79.7811 32.2215 79.5322 32.4703Z" fill="#A67C52"/>
<path d="M89.6137 31.1017C89.2403 30.4797 88.618 29.7332 88.3691 29.2356C89.3648 28.738 89.9871 28.1159 89.9871 26.9963C89.9871 25.2546 88.4936 24.8813 87.2489 24.8813H84.1373V25.1302C85.2575 25.2546 85.382 25.379 85.382 26.3742V31.7238C85.382 32.719 85.2575 32.9678 84.1373 33.0922V33.3411H87.3734V33.0922C86.2532 33.0922 86.1288 32.8434 86.1288 31.7238V29.4844C87.2489 29.4844 87.6223 29.4844 87.9957 29.9821C89.9871 33.3411 90.6094 33.3411 91.8541 33.3411V33.2167C91.2318 32.9678 90.2361 31.8482 89.6137 31.1017ZM86.8755 29.2356H86.0043V25.5034C86.0043 25.2546 86.0043 25.2546 86.1288 25.2546C86.2532 25.2546 86.5022 25.2546 86.8755 25.2546C88.2446 25.2546 89.2403 25.8766 89.2403 27.2451C89.2403 27.9915 88.9914 28.4892 88.4936 28.8624C88.1202 29.1112 87.6223 29.2356 86.8755 29.2356Z" fill="#A67C52"/>
<path d="M99.073 24.8813H95.2146V25.1302C96.3348 25.1302 96.4592 25.379 96.4592 26.4986V31.8482C96.4592 32.8434 96.3348 33.0923 95.0901 33.2167V33.4655H98.2017C100.94 33.4655 103.927 32.4702 103.927 28.8624C103.927 27.7427 103.554 26.7475 102.807 26.1254C102.06 25.1302 100.815 24.8813 99.073 24.8813ZM98.6996 32.9678C97.3305 32.9678 97.206 32.719 97.206 31.7238V25.5034C97.206 25.2546 97.206 25.2546 97.3305 25.2546C97.4549 25.2546 97.8283 25.2546 98.4506 25.2546C99.6953 25.2546 100.567 25.379 101.189 25.6278C102.433 26.2498 103.056 27.6183 103.056 29.1112C103.056 30.7285 101.936 32.9678 98.6996 32.9678Z" fill="#A67C52"/>
<path d="M114.755 31.7238C114.257 30.4797 113.635 28.738 113.013 27.1207L112.142 24.6326L112.017 24.757L109.154 31.5994C108.657 32.8435 108.532 32.9679 107.536 33.0923V33.3411H110.524V33.0923C109.777 32.9679 109.403 32.8435 109.403 32.4703C109.403 32.097 110.026 30.2309 110.15 29.9821H113.262C113.76 31.2262 114.133 32.2214 114.133 32.5947C114.133 32.9679 113.884 32.9679 113.137 33.0923V33.3411H116.249V33.0923C115.253 32.8435 115.129 32.7191 114.755 31.7238ZM110.399 29.4845C110.773 28.3648 111.395 27.1207 111.893 25.8766L113.137 29.4845H110.399Z" fill="#A67C52"/>
<path d="M133.052 25.1302C133.798 25.2546 134.047 25.379 134.047 25.7522C134.047 25.8766 134.047 26.001 134.047 26.1254C133.798 27.1207 132.803 30.1065 132.18 31.9726C131.309 29.4844 130.562 27.2451 129.815 25.0058H129.691C128.82 27.2451 127.948 29.4844 127.202 31.9726C126.579 29.8577 125.957 27.8671 125.335 26.001C125.335 25.8766 125.21 25.7522 125.21 25.6278C125.21 25.2546 125.584 25.1302 126.206 25.0058V24.8813H123.219V25.1302C124.09 25.2546 124.215 25.5034 124.588 26.4986C125.335 28.8624 126.082 31.2261 126.704 33.4655H126.828C127.575 31.2261 128.446 28.9868 129.318 26.6231C129.815 27.9915 130.936 31.2261 131.682 33.4655H131.931C133.176 29.8577 133.923 27.6183 134.421 26.3742C134.794 25.379 134.918 25.2546 135.79 25.1302V24.8813H133.052V25.1302Z" fill="#A67C52"/>
<path d="M144.004 24.7571C141.017 24.7571 139.275 26.9964 139.275 29.2358C139.275 31.7239 141.266 33.4656 143.755 33.4656C146.245 33.4656 148.485 31.5995 148.485 28.9869C148.485 26.3744 146.245 24.7571 144.004 24.7571ZM144.129 33.2168C142.013 33.2168 140.27 31.4751 140.27 28.8625C140.27 26.25 141.888 25.1303 143.631 25.1303C145.747 25.1303 147.489 26.6232 147.489 29.609C147.489 31.9727 145.871 33.2168 144.129 33.2168Z" fill="#A67C52"/>
<path d="M157.073 24.7571C154.086 24.7571 152.343 26.9964 152.343 29.2358C152.343 31.7239 154.335 33.4656 156.824 33.4656C159.313 33.4656 161.554 31.5995 161.554 28.9869C161.429 26.3744 159.313 24.7571 157.073 24.7571ZM157.073 33.2168C154.957 33.2168 153.215 31.4751 153.215 28.8625C153.215 26.25 154.833 25.1303 156.575 25.1303C158.691 25.1303 160.433 26.6232 160.433 29.609C160.558 31.9727 158.94 33.2168 157.073 33.2168Z" fill="#A67C52"/>
<path d="M173.004 26.0011C172.133 25.2547 170.888 25.0059 169.27 25.0059H165.412V25.2547C166.532 25.2547 166.657 25.5035 166.657 26.6232V31.9727C166.657 32.9679 166.532 33.2168 165.288 33.3412V33.59H168.399C171.137 33.59 174.124 32.5947 174.124 28.9869C174 27.6184 173.627 26.6232 173.004 26.0011ZM168.773 32.9679C167.403 32.9679 167.279 32.7191 167.279 31.7239V25.5035C167.279 25.2547 167.279 25.2547 167.403 25.2547C167.528 25.2547 167.901 25.2547 168.524 25.2547C169.768 25.2547 170.639 25.3791 171.262 25.6279C172.506 26.2499 173.129 27.6184 173.129 29.1113C173.129 30.853 172.009 32.9679 168.773 32.9679Z" fill="#A67C52"/>
</g>
<defs>
<linearGradient id="paint0_linear" x1="0" y1="52.4751" x2="143.609" y2="52.4751" gradientUnits="userSpaceOnUse">
<stop offset="0.1308" stop-color="#A67C52"/>
<stop offset="0.691" stop-color="#7A512B"/>
<stop offset="1" stop-color="#603813"/>
</linearGradient>
<clipPath id="clip0">
<rect width="174" height="105" fill="white"/>
</clipPath>
</defs>
</svg>