<svg width="26" height="25" viewBox="0 0 26 25" fill="none" xmlns="http://www.w3.org/2000/svg">
<path d="M18.1482 0.238037H8.51853C6.51187 0.238037 4.58739 1.03518 3.16846 2.45411C1.74954 3.87303 0.952393 5.79751 0.952393 7.80417V17.4338C0.952393 19.4405 1.74954 21.3649 3.16846 22.7839C4.58739 24.2028 6.51187 24.9999 8.51853 24.9999H18.1482C20.1548 24.9999 22.0793 24.2028 23.4982 22.7839C24.9172 21.3649 25.7143 19.4405 25.7143 17.4338V7.80417C25.7143 5.79751 24.9172 3.87303 23.4982 2.45411C22.0793 1.03518 20.1548 0.238037 18.1482 0.238037ZM23.6508 17.4338C23.6492 18.8927 23.0689 20.2913 22.0373 21.3229C21.0057 22.3545 19.607 22.9348 18.1482 22.9364H8.51853C7.05965 22.9348 5.66099 22.3545 4.6294 21.3229C3.59781 20.2913 3.01754 18.8927 3.01588 17.4338V7.80417C3.01752 6.34529 3.59779 4.94662 4.62938 3.91503C5.66097 2.88344 7.05964 2.30317 8.51853 2.30153H18.1482C19.607 2.30317 21.0057 2.88344 22.0373 3.91503C23.0689 4.94662 23.6492 6.34529 23.6508 7.80417V17.4338Z" fill="#E8E8E8"/>
<path d="M13.3333 6.42847C12.109 6.42847 10.9121 6.79153 9.8941 7.47175C8.87608 8.15197 8.08264 9.11879 7.61409 10.25C7.14555 11.3811 7.02296 12.6258 7.26182 13.8266C7.50068 15.0275 8.09027 16.1305 8.95602 16.9963C9.82177 17.862 10.9248 18.4516 12.1256 18.6905C13.3265 18.9293 14.5712 18.8067 15.7023 18.3382C16.8335 17.8697 17.8003 17.0762 18.4805 16.0582C19.1608 15.0402 19.5238 13.8433 19.5238 12.6189C19.5238 10.9771 18.8716 9.40256 17.7107 8.24162C16.5497 7.08068 14.9752 6.42847 13.3333 6.42847ZM13.3333 16.7459C12.5171 16.7459 11.7192 16.5039 11.0405 16.0504C10.3618 15.5969 9.83287 14.9524 9.52051 14.1983C9.20815 13.4442 9.12642 12.6144 9.28566 11.8138C9.4449 11.0133 9.83796 10.2779 10.4151 9.70072C10.9923 9.12355 11.7277 8.7305 12.5282 8.57126C13.3288 8.41202 14.1586 8.49374 14.9127 8.80611C15.6668 9.11847 16.3113 9.64743 16.7648 10.3261C17.2183 11.0048 17.4603 11.8027 17.4603 12.6189C17.4591 13.7131 17.0239 14.7621 16.2502 15.5358C15.4765 16.3095 14.4275 16.7447 13.3333 16.7459Z" fill="#E8E8E8"/>
<path d="M19.7989 7.52891C20.5587 7.52891 21.1746 6.91301 21.1746 6.15325C21.1746 5.39349 20.5587 4.77759 19.7989 4.77759C19.0392 4.77759 18.4233 5.39349 18.4233 6.15325C18.4233 6.91301 19.0392 7.52891 19.7989 7.52891Z" fill="#E8E8E8"/>
</svg>