<svg width="140" height="85" viewBox="0 0 140 85" fill="none" xmlns="http://www.w3.org/2000/svg">
<g clip-path="url(#clip0)">
<path d="M51.8 37C51.7 37 51.7 37 51.6 36.9C51 38.1 51.1 36.9 50.2 38.4C49.2 40.1 47.1 41.6 45.8 42.9C44.5 44.2 43 45.3 41.2 46.2C39.5 47.1 37.5 47.5 35.3 47.5C34.1 47.5 33 47.4 31.9 47.2C30.7 47 29.6 46.8 28.5 46.5C29 45.8 29.3 45.1 29.6 44.3C29.9 43.5 30.1 42.7 30.3 41.9C30.5 41.1 30.7 40.2 30.8 39.4C30.9 38.6 31.1 37.8 31.2 37C31.3 36.6 31.4 36.1 31.5 35.7C31.6 35.3 31.6 34.9 31.7 34.5C31.7 34.1 31.8 33.6 31.7 33.2C31.7 32.8 31.7 32.3 31.7 31.9C33.4 32.1 35.2 32.3 36.9 32.5C38.6 32.7 40.3 32.7 42.1 32.5C43.7 31.5 45.2 30.4 46.6 29.1C48 27.8 49.1 26.4 49.9 24.8C48.9 25 48 25.1 46.9 25.1C45.9 25.1 44.9 25 43.9 24.9C42.9 24.7 41.9 24.5 40.9 24.3L38 23.6C37 24.4 36 25.2 35.1 26C34.1 26.8 33.1 27.5 32 28C31.9 26.7 31.8 25.1 31.8 23.4C31.8 21.6 31.6 19.9 31.4 18.1C31.2 16.3 30.8 14.6 30.4 12.9C29.9 11.2 29.3 9.8 28.5 8.7C29.5 8.5 30.6 8.2 31.7 7.9C32.8 7.6 33.9 7.4 35 7.4C36.6 7.4 38.1 7.4 39.5 7.4C40.9 7.5 42.2 7.7 43.4 8.1C44.6 8.5 45.7 9.2 46.6 10C47.5 10.9 48.3 12 49 13.5L49.2 13.2C49.1 12.8 49.1 12.5 49.2 12.2C49.2 11.9 49.3 11.5 49.3 11.2C49.2 10 48.9 9.1 48.4 8.2C47.9 7.4 47.2 6.5 46.4 5.7C44.5 3.7 42.2 2.2 39.6 1.3C36.9 0.5 34.1 0 31.2 0C30.4 0 29.4 0.1 28.3 0.4C27.2 0.7 26.2 0.9 25.4 1.2C24.3 1.5 23 1.9 21.7 2.3C20.3 2.7 18.9 3.1 17.4 3.5C16 3.9 14.5 4.2 13.1 4.5C11.7 4.8 10.4 4.9 9.3 4.9C7.3 4.9 5.5 4.5 4 3.7C2.6 2.9 1.2 1.8 0 0.3C0.1 1.5 0.5 2.7 1.2 3.6C1.8 4.6 2.6 5.4 3.5 6.2C4.4 7 5.5 7.6 6.6 8.1C7.7 8.7 9 9.1 10.3 9.4C13 9.8 15.3 10 17.2 10C18.6 10 19.6 9.9 20.5 9.8C20.9 11.2 21.3 12.8 21.7 14.8C22.1 16.8 22.5 18.8 22.8 21C23.1 23.2 23.4 25.5 23.6 27.8C23.8 30.2 23.9 32.4 23.8 34.6C23.8 36.8 23.6 38.8 23.2 40.7C22.9 42.6 22.4 44.2 21.7 45.4C20.9 45.3 20.1 45.2 19.3 45.2C18.5 45.2 17.7 45.1 16.9 45.1C14.7 45.1 12.7 45.3 10.8 45.7C9.5 46 8.3 46.3 7.1 46.8C5.9 47.3 4.9 47.9 4 48.6C3 49.3 2.3 50.2 1.6 51.2C1 52.2 0.6 53.3 0.4 54.5C1.5 53.1 3 52 4.7 51.1C5.9 50.4 7.5 50.1 9.3 50.1C11.1 50.1 12.9 50.3 14.8 50.7C16.7 51.1 18.6 51.5 20.4 52.1C22.2 52.7 23.8 53.1 25.1 53.5C26 53.7 27.1 54 28.4 54.4C29.7 54.8 30.8 54.9 31.7 54.9C34.6 54.9 37.4 54.4 39.9 53.5C42.4 52.6 44.7 51.1 46.7 49.1C48.5 47.2 49.9 45.2 50.7 43C51.5 40.8 51.9 39 52 36.6C51.9 37 51.9 37 51.8 37Z" fill="white"/>
<path d="M114.6 49.7C114.1 47.7 113.2 45.5 112 43.3C111.6 42.6 111.1 41.9 110.5 41.3C109.9 40.7 109.3 40.1 108.7 39.5C108.5 39.3 108.3 39.1 107.9 38.8C107.6 38.5 107.2 38.2 106.8 37.9C106.4 37.6 106 37.3 105.7 37.1C105.3 36.9 105 36.8 104.7 36.8C104.6 36.8 104.3 37.1 103.7 37.6C103.1 38.1 102.4 38.8 101.6 39.6C100.7 40.4 99.8 41.3 98.8 42.3C97.9 43.2 97.1 44.1 96.3 44.9C97.4 44.8 98.6 44.7 99.8 44.9C100.7 44.9 101.5 45.1 102.2 45.5C102.9 45.9 103.5 46.4 104.1 46.9C104.6 47.5 105.1 48.1 105.5 48.9C105.9 49.6 106.2 50.3 106.5 50.9C107.8 53.9 108.4 56.8 108.4 59.7C108.4 62.6 107.7 65.5 106.5 68.5C106 69.7 105.4 70.8 104.7 71.9C104 73 103.1 73.9 101.9 74.6C101.4 74.9 100.8 75.1 100.2 75.3C99.5 75.5 98.9 75.6 98.1 75.7C97.4 75.8 96.7 75.8 96 75.8C95.3 75.8 94.6 75.8 94 75.7C93.2 75.6 92.4 75.5 91.6 75.4C90.8 75.3 90.1 75.2 89.3 75C88.6 74.8 87.9 74.5 87.3 74.1C86.7 73.7 86.2 73.2 85.7 72.5C85.5 72.2 85.4 71.9 85.3 71.5C85.2 71.2 85.1 70.8 84.9 70.5V70.4C84.9 70.3 84.9 70.3 84.9 70.3C85.2 69.9 85.5 69.5 85.8 69.1C86.1 68.7 86.4 68.3 86.7 67.9C87.9 66.1 88.8 64.3 89.4 62.4C90 60.5 90.3 58.5 90.3 56.5C90.3 54.1 90 51.8 89.5 49.8C89 47.8 88.1 45.6 86.9 43.4C86.5 42.7 86 42 85.4 41.4C84.8 40.8 84.2 40.2 83.6 39.6C83.4 39.4 83.2 39.2 82.8 38.9C82.5 38.6 82.1 38.3 81.7 38C81.3 37.7 80.9 37.4 80.6 37.2C80.2 37 79.9 36.9 79.6 36.9C79.5 36.9 79.2 37.2 78.6 37.7C78 38.2 77.3 38.9 76.5 39.7C75.6 40.5 74.7 41.4 73.7 42.4C72.9 43.2 72.1 44 71.3 44.8C72.6 44.6 73.9 44.7 75.4 45C75.4 45 75.4 45 75.5 45C76.7 45.2 77.8 45.7 78.7 46.7C79.8 47.9 80.7 49.2 81.4 50.8C82.1 52.4 82.6 54.1 82.9 55.8C83.2 57.5 83.4 58.9 83.4 60C83.4 61.1 83.3 62.3 83 63.7C82.7 65.1 82.3 66.5 81.8 67.9C81.3 69.3 80.6 70.6 79.8 71.8C79 73 78.1 73.9 77 74.6C76.2 75 75.2 75.4 73.9 75.6C73.8 75.6 73.7 75.6 73.6 75.6C73.3 75.7 72.8 75.7 72.3 75.8C71.9 75.8 71.5 75.9 71 75.9C70.6 75.9 70.2 76 69.7 76C69.6 76 69.5 76 69.4 76C69.3 76 69.1 76 69 76C68.9 76 68.8 76 68.7 76C68.7 76 68.7 76 68.6 76C68.5 76 68.5 76 68.4 76C68.3 76 68.1 76 67.8 75.9C67.8 75.9 67.8 75.9 67.7 75.9C67.6 75.9 67.4 75.9 67.2 75.8C66.2 75.7 63.6 75 63.1 74.7C63 74.7 62.9 74.6 62.9 74.6C62.5 74.4 62.1 74.2 61.8 73.8C61 72.8 60.4 71.7 60.1 70.4C59.8 69.1 59.6 67.7 59.6 66.3C59.6 64.9 59.6 63.7 59.6 62.7V44.9C59.6 44 59.3 43.1 58.8 42.1C58.2 41.2 57.7 40.3 57.1 39.6C56.5 38.9 55.8 38.2 55 37.4C54.2 36.7 53.2 36.3 52.1 36.3C52 36.3 51.9 36.3 51.8 36.4C51.6 36.6 51.5 36.9 51.4 37.1C51.3 37.3 51.1 37.5 51 37.7C50.7 38.1 50.4 38.5 50.1 38.8C49.8 39.1 49.4 39.4 49.1 39.8C48.7 40.2 48.4 40.5 48.1 40.9C47.8 41.3 47.5 41.7 47.2 42.1C46.8 42.6 46.3 43.1 45.8 43.5C45.3 44 44.9 44.5 44.6 45.1C44.8 45.3 44.9 45.4 44.9 45.6C45 45.6 45.1 45.7 45.2 45.7C45.3 45.7 45.4 45.7 45.5 45.6C45.9 45.6 46.2 45.5 46.5 45.5C46.8 45.4 47.1 45.4 47.5 45.4C48.5 45.4 49.3 45.7 49.9 46.3C50.5 46.9 50.9 47.7 51.2 48.5C51.5 49.4 51.6 50.3 51.7 51.2C51.8 52.1 51.8 52.9 51.8 53.6C51.8 55.5 51.8 57.4 51.7 59.4C51.6 61.3 51.6 63.3 51.6 65.2C51.6 66.2 51.6 67.3 51.7 68.4C51.7 69.5 51.9 70.6 52 71.8C52.2 72.9 52.4 74 52.8 75.1C53.1 76.2 53.6 77.2 54.2 78C54.8 79 55.5 80 56.1 80.7C56.7 81.5 57.4 82.1 58.2 82.7C59 83.3 59.9 83.7 60.9 84C61.9 84.3 63.1 84.4 64.5 84.4C64.9 84.4 65.4 84.2 66.1 84C66.8 83.7 67.7 83.3 68.6 82.8C69.5 82.3 70.5 81.8 71.5 81.2C72.5 80.6 73.5 80 74.4 79.5C75.3 78.9 76.2 78.4 76.9 77.9C77.7 77.4 78.2 77 78.6 76.8C78.5 77 78.6 77.2 78.8 77.5C79 77.8 79.2 78 79.3 78.1C80.1 79.1 80.7 80 81.4 80.8C82 81.6 82.7 82.3 83.4 82.8C84.1 83.3 85 83.8 85.9 84.1C86.9 84.4 88.1 84.5 89.6 84.5C90 84.5 90.6 84.3 91.4 84C92.2 83.6 93.1 83.2 94 82.8C94.9 82.3 95.7 81.9 96.6 81.4C97.4 80.9 98 80.6 98.4 80.3C100.8 78.9 103 77.4 105.2 75.8C107.3 74.2 109.2 72.4 110.9 70.5C112.5 68.6 113.8 66.5 114.8 64.2C115.8 61.9 116.2 59.4 116.2 56.7C115.4 54 115.1 51.7 114.6 49.7Z" fill="white"/>
<path d="M59.3 26.6C60.3 26.5 60.4 26.4 60.4 25.5V21.3C60.4 20.4 60.3 20.2 59.4 20.1V20H64.1C64.1 20.4 64.2 21 64.2 21.6H64C63.8 20.5 63.6 20.2 62.3 20.2H61.3C61 20.2 61 20.2 61 20.5V23H62.3C63.2 23 63.4 22.9 63.5 22.2H63.7V24.2H63.5C63.3 23.4 63.1 23.3 62.3 23.3H61V25.4C61 26.4 61.4 26.4 62.3 26.4C63 26.4 63.6 26.4 63.9 26C64.1 25.8 64.3 25.4 64.5 24.9H64.7C64.6 25.3 64.4 26.3 64.3 26.6H59.3Z" fill="white"/>
<path d="M67.5 26.6C68.5 26.6 68.5 26.4 68.5 25.5V21.2C68.5 20.3 68.4 20.2 67.5 20.2V20H70C71.1 20 72.2 20.3 72.2 21.7C72.2 22.6 71.7 23.2 70.9 23.5C71.1 23.8 71.5 24.5 71.9 25C72.4 25.6 73.2 26.6 73.7 26.7V26.8C72.7 26.8 72.2 26.7 70.6 24.1C70.3 23.7 70 23.7 69.1 23.7V25.5C69.1 26.3 69.2 26.5 70.1 26.6V26.8H67.5V26.6ZM69.8 23.5C70.4 23.5 70.8 23.4 71.1 23.2C71.5 22.9 71.7 22.5 71.7 21.9C71.7 20.7 71 20.3 69.8 20.3C69.5 20.3 69.3 20.3 69.2 20.3C69.1 20.3 69.1 20.3 69.1 20.5V23.5H69.8Z" fill="white"/>
<path d="M76.4 26.6C77.4 26.6 77.5 26.4 77.5 25.5V21.2C77.5 20.4 77.4 20.2 76.5 20.1V20H79.6C80.9 20 81.9 20.2 82.6 20.8C83.2 21.3 83.5 22.1 83.5 23C83.5 25.8 81 26.7 78.9 26.7H76.4V26.6ZM78 25.5C78 26.3 78.2 26.5 79.2 26.5C81.8 26.5 82.7 24.8 82.7 23.4C82.7 22.2 82.2 21.1 81.2 20.6C80.7 20.4 80 20.3 79 20.3C78.5 20.3 78.2 20.3 78.1 20.3C78 20.3 78 20.3 78 20.5V25.5Z" fill="white"/>
<path d="M90.9 26.6C91.5 26.5 91.7 26.4 91.7 26.2C91.7 25.9 91.4 25.1 91 24.1H88.5C88.4 24.3 87.9 25.8 87.9 26.1C87.9 26.5 88.2 26.5 88.8 26.6V26.8H86.4V26.6C87.2 26.4 87.3 26.4 87.7 25.4L90 19.9L90.1 19.8L90.8 21.8C91.3 23.1 91.8 24.5 92.2 25.5C92.5 26.3 92.6 26.4 93.4 26.5V26.7H90.9V26.6ZM89.8 20.8C89.4 21.8 89 22.8 88.6 23.7H90.9L89.8 20.8Z" fill="white"/>
<path d="M103.9 21.4C103.2 23.4 102.5 25.2 101.9 26.9H101.8C101.3 25 100.6 23.1 100.1 21.3C99.9 20.5 99.7 20.3 99 20.2V20H101.3V20.2C100.7 20.3 100.5 20.4 100.5 20.7C100.5 20.8 100.5 20.9 100.6 21C101 22.5 101.6 24.1 102.1 25.8C102.8 23.9 103.5 22 104.1 20.2H104.2C104.8 22 105.4 23.8 106.1 25.8C106.6 24.3 107.5 21.9 107.6 21.1C107.6 21 107.6 20.9 107.6 20.8C107.6 20.5 107.4 20.4 106.8 20.3V20H109V20.2C108.3 20.3 108.2 20.5 107.9 21.2C107.5 22.2 106.9 24 105.9 26.9H105.7C105.3 25.1 104.4 22.5 103.9 21.4Z" fill="white"/>
<path d="M119.3 23.3C119.3 25.4 117.6 26.9 115.5 26.9C113.5 26.9 111.9 25.4 111.9 23.5C111.9 21.7 113.3 19.9 115.7 19.9C117.5 19.9 119.3 21.2 119.3 23.3ZM112.7 23.2C112.7 25.3 114 26.7 115.8 26.7C117.3 26.7 118.6 25.7 118.6 23.8C118.6 21.4 117.2 20.2 115.5 20.2C114 20.1 112.7 21.1 112.7 23.2Z" fill="white"/>
<path d="M129.7 23.3C129.7 25.4 128 26.9 125.9 26.9C123.9 26.9 122.3 25.4 122.3 23.5C122.3 21.7 123.7 19.9 126.1 19.9C128 19.9 129.7 21.2 129.7 23.3ZM123.2 23.2C123.2 25.3 124.5 26.7 126.3 26.7C127.8 26.7 129.1 25.7 129.1 23.8C129.1 21.4 127.7 20.2 126 20.2C124.5 20.1 123.2 21.1 123.2 23.2Z" fill="white"/>
<path d="M132.7 26.6C133.7 26.6 133.8 26.4 133.8 25.5V21.2C133.8 20.4 133.7 20.2 132.8 20.1V20H135.9C137.2 20 138.2 20.2 138.9 20.8C139.5 21.3 139.8 22.1 139.8 23C139.8 25.8 137.3 26.7 135.2 26.7H132.7V26.6ZM134.4 25.5C134.4 26.3 134.6 26.5 135.6 26.5C138.2 26.5 139.1 24.8 139.1 23.4C139.1 22.2 138.6 21.1 137.6 20.6C137.1 20.4 136.4 20.3 135.4 20.3C134.9 20.3 134.6 20.3 134.5 20.3C134.4 20.3 134.4 20.3 134.4 20.5V25.5Z" fill="white"/>
</g>
<defs>
<clipPath id="clip0">
<rect width="139.8" height="84.4" fill="white"/>
</clipPath>
</defs>
</svg>